<svg id="圖稿_34" data-name="圖稿 34" xmlns="http://www.w3.org/2000/svg" width="111" height="20" viewBox="0 0 111 20">
  <g id="Group_1" data-name="Group 1">
    <path id="Path_1" data-name="Path 1" d="M44.342,11.752a6.808,6.808,0,0,1-1.622,1.865.351.351,0,0,0,.116.583,2.608,2.608,0,0,1,1.275.933,3.747,3.747,0,0,1-.463,5.071l-.637.466a.584.584,0,0,0-.29.7l1.043,2.273a.578.578,0,0,0,.753.291,7.318,7.318,0,0,0,2.955-2.8,6.374,6.374,0,0,0,.7-1.574,7.251,7.251,0,0,0-2.9-8.044.635.635,0,0,0-.927.233Z" transform="translate(-17.925 -4.753)" fill="#d6d71e"/>
    <path id="Path_2" data-name="Path 2" d="M33.855,0a4.081,4.081,0,1,0,4.055,4.081A4.068,4.068,0,0,0,33.855,0Zm0,5.654a1.511,1.511,0,1,1,1.124-.443,1.512,1.512,0,0,1-1.124.443Z" transform="translate(-12.536 0.005)" fill="#d6d71e"/>
    <path id="Path_3" data-name="Path 3" d="M21.377,16.377a.927.927,0,0,1-.811-.525L14.483,2.27A3.865,3.865,0,0,0,11.239,0,7.4,7.4,0,0,0,5.1,2.911,6.961,6.961,0,0,0,3.476,6.992,6.826,6.826,0,0,0,0,12.821a7.235,7.235,0,0,0,3.766,6.354,6.86,6.86,0,0,0,3.36.816h8.169a.521.521,0,0,0,.406-.233.527.527,0,0,0,.057-.467l-2.2-4.955a.289.289,0,0,0-.521,0l-.579,1.457a1.043,1.043,0,0,1-.985.641H7.126a3.458,3.458,0,0,1-1.738-.408,3.619,3.619,0,0,1-1.8-3.206,3.63,3.63,0,0,1,2.549-3.09c1.217-.466,1.1-1.282,1.043-2.273a3.453,3.453,0,0,1,.753-2.332A4.4,4.4,0,0,1,10.6,3.494a.694.694,0,0,1,.753.408l6.662,15.04a1.8,1.8,0,0,0,1.622,1.049h4.113a.463.463,0,0,0,.367-.215.469.469,0,0,0,.038-.426L23,16.9a.869.869,0,0,0-.753-.525Z" transform="translate(0 0.008)" fill="#f38200"/>
  </g>
  <g id="Group_2" data-name="Group 2" transform="translate(35.281 0.58)">
    <path id="Path_4" data-name="Path 4" d="M99.193,2.452a9.316,9.316,0,0,1-.406,1.69l-.174.525h4.113V2.044a.936.936,0,0,1,.245-.759.924.924,0,0,1,.739-.29.981.981,0,0,1,.8.264.994.994,0,0,1,.305.785V4.667H110.9a.93.93,0,0,1,.927.933,1,1,0,0,1-.247.718.983.983,0,0,1-.68.331h-6.083V10.9h4.229a.994.994,0,1,1,.116,1.982h-4.345v4.022h6.778a.981.981,0,0,1,.714.248.993.993,0,0,1,.329.684,1.047,1.047,0,0,1-.927,1.049H95.6a.981.981,0,0,1-.773-.246.947.947,0,0,1,.021-1.452.981.981,0,0,1,.752-.226h7.126V12.828H98.092a1.046,1.046,0,0,1-1.043-1.049.993.993,0,0,1,.329-.684.981.981,0,0,1,.714-.248h4.635v-4.2H97.86A23.382,23.382,0,0,1,96.7,9.1a1.039,1.039,0,0,1-1.448.408c-.637-.408-.463-1.049-.29-1.516A29.838,29.838,0,0,0,97.281,2.1.982.982,0,0,1,98.5,1.636.815.815,0,0,1,99.193,2.452Z" transform="translate(-75.034 -0.988)" fill="#462f32"/>
    <path id="Path_5" data-name="Path 5" d="M65.535,2.452a9.316,9.316,0,0,1-.406,1.69l-.174.525h4.113V2.044a.936.936,0,0,1,.245-.759.924.924,0,0,1,.739-.29.981.981,0,0,1,.8.264.994.994,0,0,1,.305.785V4.667h6.083a.93.93,0,0,1,.927.933,1,1,0,0,1-.247.718.983.983,0,0,1-.68.331H71.154V10.9h4.229a.994.994,0,1,1,.116,1.982H71.154v4.022H77.99a.981.981,0,0,1,.714.248.993.993,0,0,1,.329.684,1.047,1.047,0,0,1-.927,1.049H62a.981.981,0,0,1-.773-.246.947.947,0,0,1,.021-1.452A.981.981,0,0,1,62,16.967h7.068V12.828H64.434a1.046,1.046,0,0,1-1.043-1.049.987.987,0,0,1,1.043-.874h4.635V6.649H64.2A23.382,23.382,0,0,1,63.044,9.1a1.039,1.039,0,0,1-1.448.408c-.637-.408-.463-1.049-.29-1.516A29.838,29.838,0,0,0,63.623,2.1.983.983,0,0,1,64.9,1.578.815.815,0,0,1,65.535,2.452Z" transform="translate(-60.9 -0.988)" fill="#462f32"/>
    <path id="Path_6" data-name="Path 6" d="M130.846,1.475a.759.759,0,0,1,.406.7c-.058.291-.058.583-.116.874a27.335,27.335,0,0,1-1.1,3.264v12.3a.987.987,0,0,1-.985.933.93.93,0,0,1-.927-.933V9.927c-.058.117-.579,2.1-1.854,1.341-.232-.117-.579-.7,0-1.574a32.407,32.407,0,0,0,3.186-7.811.813.813,0,0,1,.637-.583,1.844,1.844,0,0,1,.753.175Zm11.934.175a.813.813,0,0,1,.811.7c.058.583-.579.816-.811.816h-6.025l-.232.641H141.1c.869,0,1.332.35,1.332.933v4.2h.406q1.275,0,1.275,1.049v.933a.929.929,0,0,1-.927.874h-.406a3.033,3.033,0,0,1,.927,1.457.644.644,0,0,1-.174.525.808.808,0,0,1-1.217-.175l-1.159-1.341h0a1.639,1.639,0,0,1-.348.991,1.674,1.674,0,0,1-1.39.525h-3.766a.993.993,0,0,1-.348.641h6.141a1.211,1.211,0,0,1,.7.175.816.816,0,0,1,.406.583,1.226,1.226,0,0,1-.521.991,9.78,9.78,0,0,1-2.259,1.4c.116-.058.406.058.521.058h.521l.985.117a3.168,3.168,0,0,0,1.8-.117c.174-.117.348-.233.521-.175a.438.438,0,0,1,.29.408c0,.175.116,1.166-.29,1.4a1.327,1.327,0,0,1-.753.233,16.354,16.354,0,0,1-3.244-.291,16.893,16.893,0,0,1-2.839-.816,23.857,23.857,0,0,1-4.751,1.049,1.1,1.1,0,0,0-.579.175l-.29.233h-.232a.987.987,0,0,1-.463-.408,1.172,1.172,0,0,1-.174-1.108,1.041,1.041,0,0,1,.869-.466,31.679,31.679,0,0,0,3.476-.525,13.305,13.305,0,0,1-1.68-.991l-.753.583a1.04,1.04,0,0,1-.637.291.924.924,0,0,1-.7-.291.819.819,0,0,1,.174-1.166,17.248,17.248,0,0,0,2.781-2.623l.406-.233a2.638,2.638,0,0,1-.058-.7v-.874a.819.819,0,0,1,.211-.678.977.977,0,0,1,1.317,0,.819.819,0,0,1,.211.678v.758a.351.351,0,0,0,.1.312.346.346,0,0,0,.31.1h2.375a.461.461,0,0,0,.346-.094.467.467,0,0,0,.176-.314c.116-.35.232-.525.637-.525h.232a.525.525,0,0,1-.232-.35.7.7,0,0,1,.29-.583.979.979,0,0,1,.869-.058,2.433,2.433,0,0,1,.811.583,1.116,1.116,0,0,1,0-.291v-.525c0-.117-.058-.175-.232-.175h-3.708l.637.758a.644.644,0,0,1-.116.991c-.348.233-.811-.058-.985-.291l-1.043-1.166a.351.351,0,0,1-.116-.35H133.28c-.174,0-.232.058-.232.175v.583a.864.864,0,0,1,.753.058.761.761,0,0,1,.174.933,8.529,8.529,0,0,1-.7,1.341c-.174.35-.753.758-1.217.466a.7.7,0,0,1-.232-1.049l.406-.641h-.116a.866.866,0,0,1-.652-.235.877.877,0,0,1-.275-.64V9.927q0-1.049,1.275-1.049h.406a.82.82,0,0,1,0-.233V4.739c0-.641.406-.933,1.275-.933h.7l.29-.641h-2.317a.75.75,0,0,1-.593-.22.767.767,0,0,1,.043-1.116.75.75,0,0,1,.55-.18Zm-2.317,3.556a.292.292,0,0,0-.124-.191.288.288,0,0,0-.223-.042h-5.388a.232.232,0,0,0-.232.233V8.936h5.967Zm-3.3,11.659a15.984,15.984,0,0,0,2.665-.991c.29-.175.174-.233.058-.233h-5.04a8.327,8.327,0,0,0,2.317,1.282Z" transform="translate(-88.266 -1.118)" fill="#462f32"/>
    <path id="Path_7" data-name="Path 7" d="M170.865,17.014l.174.233a19.963,19.963,0,0,0,1.622-4.838,34.366,34.366,0,0,0,.521-6.354h-.753a.924.924,0,0,1-.7-.313.937.937,0,0,1-.227-.736.935.935,0,0,1,.311-.7.923.923,0,0,1,.732-.228h.637V2.149a1,1,0,0,1,.267-.739.985.985,0,0,1,1.435,0,.994.994,0,0,1,.267.739c0,.933,0,1.166,0,1.924h1.564c1.275,0,1.97.758,1.97,2.215,0,5.363-.116,9.094-.232,10.434a3.453,3.453,0,0,1-.7,2.04,2.829,2.829,0,0,1-1.97.758c-.753,0-2.259-.291-2.259-1.516a.875.875,0,0,1,.411-.7.864.864,0,0,1,.806-.057,1.441,1.441,0,0,0,1.043.233c.463-.058.753-.466.811-1.282s.116-4.722.116-9.5a.7.7,0,0,0-.174-.525l-.406-.117h-1.043V6.23a36.774,36.774,0,0,1-.348,5.421,21.666,21.666,0,0,1-2.2,7.228,1.212,1.212,0,0,1-1.8.291.818.818,0,0,1-.29-.7H170.4l-8.4.816a.93.93,0,0,1-.869-.874.872.872,0,0,1,.811-.874l3.3-.291V15.965h-2.9a.817.817,0,0,1,0-1.574h2.9v-.874H162.7a1.154,1.154,0,0,1-1.009-.326,1.17,1.17,0,0,1-.324-1.015V8.037a1.17,1.17,0,0,1,.324-1.015A1.154,1.154,0,0,1,162.7,6.7h2.549V5.822h-3.476a.874.874,0,0,1,0-1.749h3.476V3.257c-1.043.058-2.086.117-3.244.117s-.869-.408-.869-1.049a.755.755,0,0,1,.753-.7,70.823,70.823,0,0,0,7.879-.466h.463a.872.872,0,0,1,.811.874.756.756,0,0,1-.637.758,24.705,24.705,0,0,1-3.128.35v.933h3.07a.808.808,0,0,1,.634.237.819.819,0,0,1,.235.638.819.819,0,0,1-.235.638.808.808,0,0,1-.634.237h-3.07V6.7h2.607a1.154,1.154,0,0,1,1.009.326,1.17,1.17,0,0,1,.324,1.015v4.081a1.229,1.229,0,0,1-.35.988,1.212,1.212,0,0,1-.982.352h-2.607v.874h2.839a.808.808,0,0,1,.878.317.82.82,0,0,1,0,.939.808.808,0,0,1-.878.317h-2.839v1.108l2.9-.291a.924.924,0,0,1,.7.291Zm-5.62-8.744H163.8c-.29,0-.406.117-.406.408v2.856c0,.291.116.408.406.408h1.448Zm3.939.408a.351.351,0,0,0-.1-.312.346.346,0,0,0-.31-.1h-1.506v3.614h1.506a.367.367,0,0,0,.406-.408Z" transform="translate(-102.967 -1.035)" fill="#462f32"/>
    <path id="Path_8" data-name="Path 8" d="M169.961,15h-3.592a.874.874,0,0,0,0,1.749h3.592a.874.874,0,0,0,0-1.749Z" transform="translate(-104.902 -6.832)" fill="#462f32"/>
    <path id="Path_9" data-name="Path 9" d="M144.93,8.6h-4.751a.583.583,0,0,0,0,1.166h4.751a.583.583,0,0,0,0-1.166Z" transform="translate(-94.007 -4.163)" fill="#462f32"/>
    <path id="Path_10" data-name="Path 10" d="M144.93,11.4h-4.751a.583.583,0,0,0,0,1.166h4.751a.583.583,0,0,0,0-1.166Z" transform="translate(-94.007 -5.33)" fill="#462f32"/>
  </g>
</svg>
