<?xml version="1.0" encoding="UTF-8"?>
<svg version="1.0" id="svg"  xmlns="http://www.w3.org/2000/svg" viewBox="0 0 170.04 110.89">
	<defs>
	 	<style>
	        .cls-1{
	            stroke-dasharray: 950;
	            stroke-dashoffset: 0;
	            stroke-width: 2;
	            stroke: #dae24a;
	            fill: transparent;
	            animation: dash 4s ease forwards;
	        }

            .cls-2{
	            stroke-dasharray: 950;
	            stroke-dashoffset: 0;
	            stroke-width: 2;
	            stroke: #f39800;
	            fill: transparent;
	            animation: dash 4s ease forwards;
            }

	        @keyframes dash {
	            from {
	                stroke-dashoffset: 950;
	            }

	            to {
	                stroke-dashoffset: 0;
	            }
	        }			 
	 	</style>
	</defs>
	<path class="cls-1" d="M143.48,39.94c-2.24,3.72-5.15,6.99-8.56,9.65-1.15,.9-.88,2.65,.48,3.16,2.65,.99,4.99,2.62,6.63,4.98,6.43,9.28,4.85,20.02-2.33,26.33-1.06,.93-2.21,1.71-3.44,2.36-1.37,.72-2,2.32-1.37,3.73l5.33,11.89c.69,1.53,2.47,2.15,3.97,1.4,6.22-3.14,11.61-8.06,15.51-14.49,1.54-2.53,2.72-5.25,3.53-8.1,4.86-17-2.22-33.38-15.2-41.98-1.54-1.02-3.61-.51-4.57,1.07Z" />
	<path class="cls-1" d="M116.95,3.43c-11.79,0-21.35,9.56-21.35,21.35s9.56,21.35,21.35,21.35,21.35-9.56,21.35-21.35S128.74,3.43,116.95,3.43Zm0,29.27c-4.38,0-7.92-3.55-7.92-7.92s3.55-7.92,7.92-7.92,7.92,3.55,7.92,7.92-3.55,7.92-7.92,7.92Z" />
	<path class="cls-2" d="M117.11,88.7c-1.86,0-3.56-1.09-4.32-2.79L81.08,15.22c-1.35-3-7.15-11.78-16.9-11.79-11.56,0-22.83,3.49-32.18,15.08-5.33,6.6-8.26,14.25-8.42,21.37-11.46,6.89-18.33,17.99-18.32,30.23,0,13.56,7.19,26.02,19.74,33.03,5.35,2.99,11.46,4.33,17.59,4.33h.08l42.54-.03c1.92,0,3.2-1.98,2.42-3.73l-11.48-25.89c-.54-1.22-2.28-1.18-2.77,.05l-2.98,7.46c-.82,2.06-2.81,3.41-5.03,3.41l-22.71,.02h-.01c-3.13,0-6.25-.7-8.96-2.25-6.18-3.52-9.71-9.7-9.71-16.42,0-7.95,6.83-13.56,13.23-16.16,4.6-1.87,5.63-6.74,5.33-11.7-.32-5.32,2.06-9.32,4.04-11.98,1.8-2.42,6.49-6.98,14.07-8.38,1.59-.29,3.18,.58,3.84,2.05l34.98,77.97c1.51,3.36,4.85,5.52,8.53,5.52h19.44c.67-.01,1.34-.03,2-.07,1.67-.09,2.7-1.87,2.02-3.39l-5.68-12.66c-.71-1.58-2.28-2.6-4.01-2.6h-4.64Z" />
</svg>
