<svg viewBox="0 0 512 512" xmlns="http://www.w3.org/2000/svg" xmlns:xlink="http://www.w3.org/1999/xlink"><linearGradient id="linear-gradient" gradientUnits="userSpaceOnUse" x1="69.8" x2="427.68" y1="69.8" y2="427.68"><stop offset="0" stop-color="#f8da30"/><stop offset="1" stop-color="#fdab22"/></linearGradient><g id="Layer_2" data-name="Layer 2"><g id="Layer_1_copy_6" data-name="Layer 1 copy 6"><g id="_97" data-name="97"><path d="m256 0c-141.38 0-256 114.62-256 256s114.62 256 256 256 256-114.62 256-256-114.62-256-256-256zm24 156.84c1.47-6.54 7.57-10 14.82-8.46 37.79 8.13 65.33 42.39 65.6 81.24-.61 5.24-1 10.51-1.89 15.7-1.2 7.16-7.11 11.35-13.76 10.11-6.43-1.2-10.24-7.18-9.06-14.22 5.59-33.35-13.23-62.05-46.08-70.27-7.21-1.81-11.09-7.5-9.63-14.1zm-12 36.24c1.56-6.54 7.52-10 14.46-8.49a50.15 50.15 0 0 1 39.08 48.34c-.4 3.37-.61 6.79-1.25 10.12a11.54 11.54 0 0 1 -22.71-4.14c2.36-16-5.12-27.54-20.64-31.87-6.72-1.87-10.45-7.69-8.94-13.96zm96.89 177.6v.09c-.08 1.74-.21 3.47-.44 5.19-1.93 14.3-14.41 24.34-28.92 24.35-30.14 0-58.72-7-85.7-20.14q-75.46-36.63-113.41-111.65c-13.82-27.38-21.41-56.45-21.66-87.26-.14-17.67 12.55-30.54 30.16-30.66 12.77-.09 25.54 0 38.31 0 5.55 0 8.85 2.32 10.63 7.63 6.38 18.95 12.65 37.94 19.06 56.88a11.53 11.53 0 0 1 -1.6 10.89c-4.77 7-9.33 14.14-14.17 21.09-1.38 2-1.55 3.42-.38 5.57 8.92 16.44 20.87 30.44 34.51 43.09a151 151 0 0 0 32.24 23.39 3.93 3.93 0 0 0 4.72-.22c7.07-4.86 14.29-9.51 21.35-14.38a11.7 11.7 0 0 1 11.21-1.61c18.74 6.35 37.54 12.53 56.31 18.8 5.87 2 8 5 8 11.35s0 12.77 0 19.15l-.11 13.27c0 1.73 0 3.5-.12 5.18zm31.35-121.9a11.49 11.49 0 0 1 -13.62 9.86c-6.47-1.2-10.27-7.21-9.1-14.16 6.4-37.91-5.54-68.92-35.49-92.88-10.46-8.36-22.58-13.53-35.66-16.43-7-1.56-10.88-6.07-10.6-12.23.35-7.43 7-12.31 14.69-10.63 23.19 5.11 43.21 16 59.57 33.27 21.39 22.55 32.1 49.51 32.61 84.07-.51 4.1-1.24 11.65-2.41 19.13z" fill="url(#linear-gradient)"/></g></g></g></svg>