<?xml version="1.0" encoding="UTF-8"?>
<svg id="_層_1" xmlns="http://www.w3.org/2000/svg" viewBox="0 0 219.83 54.26">
	<defs>
	 	<style>
	        .cls-1{
	            stroke-dasharray: 950;
	            stroke-dashoffset: 0;
	            stroke-width: 2;
	            stroke: #593e41;
	            fill: transparent;
	            animation: dash 4s ease forwards;
	        }

	        @keyframes dash {
	            from {
	                stroke-dashoffset: 950;
	            }

	            to {
	                stroke-dashoffset: 0;
	            }
	        }			 
	 	</style>
	</defs>
	<path class="cls-1" d="M73.37,6.07c-.16,1.33-.53,2.83-1.07,4.49-.16,.48-.32,.91-.48,1.34h10.95V4.99c0-.96,.27-2.7,2.66-2.73,2.4-.02,2.94,1.76,2.94,2.72v6.89h16.13c.96-.01,2.5,.72,2.51,2.5,.02,1.78-1.49,2.72-2.51,2.72h-16.12v11.21h11.26c1.35-.01,2.95,.86,2.95,2.5,0,1.82-1.72,2.72-2.63,2.72h-11.57v10.64h18.09c1.59-.01,2.77,1.12,2.77,2.46,0,1.8-1.57,2.71-2.47,2.71l-42.87,.03c-1.37,0-2.86-.65-2.86-2.67s2-2.51,2.85-2.51h18.89v-10.65h-12.28c-.86,.01-2.82-.55-2.82-2.71s1.96-2.51,2.82-2.51h12.27v-11.21h-12.99c-1.06,2.57-2.13,4.77-3.09,6.48-.43,.96-2.12,2.07-3.89,1.03-1.76-1.04-1.27-2.84-.7-4.08,2.67-4.92,4.63-10.09,6.23-15.54,.32-.96,1.8-1.77,3.27-1.3,1.5,.48,1.75,1.46,1.75,2.37Z" />
	<path class="cls-1" d="M21.49,6.1c-.16,1.33-.53,2.83-1.07,4.49-.16,.48-.32,.91-.48,1.34h10.95V5.03c0-.96,.27-2.7,2.66-2.73,2.4-.02,2.94,1.76,2.94,2.72v6.89h16.13c.96-.01,2.5,.72,2.51,2.5,.02,1.78-1.49,2.72-2.51,2.72h-16.12v11.21h11.26c1.35-.01,2.95,.86,2.95,2.5,0,1.82-1.72,2.72-2.63,2.72h-11.57v10.64h18.09c1.59-.01,2.77,1.12,2.77,2.46,0,1.8-1.57,2.71-2.47,2.71l-42.87,.03c-1.37,0-2.86-.65-2.86-2.67s2-2.51,2.85-2.51H30.91v-10.65h-12.28c-.86,.01-2.82-.55-2.82-2.71s1.96-2.51,2.82-2.51h12.27v-11.21h-12.99c-1.06,2.57-2.13,4.77-3.09,6.48-.43,.96-2.12,2.07-3.89,1.03-1.76-1.04-1.27-2.84-.7-4.08,2.67-4.92,4.63-10.09,6.23-15.54,.32-.96,1.8-1.77,3.27-1.3s1.75,1.46,1.75,2.37Z" />
	<path class="cls-1" d="M122.4,3.23c.64,.32,1.02,.96,1.02,1.87-.11,.8-.21,1.55-.37,2.24-.64,2.67-1.6,5.5-2.77,8.6l.02,32.59c0,.85-.72,2.51-2.67,2.51-1.95,0-2.51-1.66-2.51-2.51V25.55c-.17,.32-1.62,5.51-5,3.5-.56-.33-1.57-1.8-.04-4.17,3.74-6.52,6.62-13.36,8.53-20.57,.32-.85,.91-1.39,1.66-1.5,.85,0,1.6,.16,2.14,.42Zm31.69,.41c.64,0,2.13,.35,2.22,1.87,.09,1.51-1.58,2.09-2.22,2.09h-15.87l-.69,1.66h12.17c2.35,0,3.58,.85,3.58,2.5v10.63c0,.21-.04,.32-.04,.43h1.07c2.24,0,3.37,.9,3.37,2.72v2.51c0,.85-.79,2.3-2.51,2.3-.38,0-.69,0-.96-.11,1.55,1.71,2.35,2.99,2.41,3.85,0,.59-.06,.87-.53,1.39s-1.9,.95-3.21-.53c-.96-1.18-2.03-2.35-3.15-3.52v.16c0,.96-.26,1.92-.85,2.67-.69,.88-1.82,1.28-3.74,1.34h-9.56c-.21,0-.32,0-.43-.05-.02,.78-.48,1.29-.86,1.71h16.3c.85-.01,1.49,.15,1.92,.47,.64,.48,1.02,1.02,1.02,1.6,0,.96-.48,1.82-1.44,2.56-1.49,1.28-3.52,2.51-6.09,3.69,.26-.12,1.12,.18,1.42,.22,.46,.07,.92,.14,1.38,.2,.88,.12,1.76,.22,2.64,.29,1.54,.12,3.3,.46,4.72-.32,.43-.24,.9-.57,1.37-.43,.47,.13,.71,.66,.83,1.13,.26,1.04,.25,3.02-.72,3.74-.54,.4-1.34,.61-2.01,.61-3.37,0-6.25-.26-8.6-.74-2.72-.53-5.23-1.23-7.59-2.13-.51,.16-6.29,2.15-12.62,2.82-.54,.06-1.12,.08-1.57,.44-.25,.2-.45,.49-.76,.57-.2,.05-.42,0-.61-.07-.49-.2-.89-.58-1.17-1.03-.51-.81-.95-1.99-.45-2.9,.44-.8,1.39-1.13,2.25-1.21,3.09-.27,5.23-.63,9.23-1.38-.11-.05-2.84-1.45-4.43-2.67-.46,.39-1.23,1.02-1.98,1.55-.59,.48-1.17,.7-1.76,.7-.69,0-1.28-.27-1.82-.8-.48-.53-.9-2.04,.39-3.07,.42-.33,3.5-2.49,7.4-6.98,.37-.32,.75-.53,1.12-.59-.16-.53-.21-1.17-.22-1.92v-2.36c0-1.39,.75-2.39,2.3-2.39,1.49,0,2.3,1,2.3,2.39v1.99c0,.69,.32,1.01,1.02,1.01h6.3c1.07,0,1.22-.72,1.34-1.13,.27-.94,.63-1.39,1.76-1.39,.21,0,.43,.05,.59,.11-.37-.32-.59-.64-.59-.91,0-.64,.26-1.17,.8-1.55,.32-.22,1.25-.6,2.35-.16,1.1,.44,1.78,1.28,2.14,1.6-.06-.21-.06-.43-.06-.75v-1.44c0-.27-.21-.43-.64-.43h-9.93c.32,.44,.86,1.02,1.69,2,.83,.99,.49,2.11-.38,2.66-.87,.55-2.13-.09-2.69-.7-.64-.75-1.39-1.54-2.78-3.04-.51-.42-.37-.91-.37-.91h-9.31c-.43,0-.64,.17-.64,.43v1.5c.11,0,.99-.45,2,.16,.56,.34,.88,1.26,.5,2.45-.2,.62-1.43,3.05-1.86,3.58-.53,.86-1.96,1.98-3.24,1.28-1.03-.56-1.39-1.75-.66-2.82,.43-.53,.8-1.12,1.12-1.76h-.37c-1.87,0-2.51-1.44-2.51-2.3v-3.15c0-1.82,1.12-2.72,3.36-2.73h1.07c-.05-.21-.05-.37-.05-.59V11.78c0-1.66,1.11-2.51,3.36-2.51h1.82l.69-1.66h-6.16c-.64,0-2.21-.5-2.12-2.08,.09-1.58,1.48-1.87,2.12-1.87l27.42-.02Zm-6.04,9.39c0-.27-.32-.63-.86-.63h-14.37c-.43,0-.64,.37-.64,.64l-.05,9.79h15.92V13.03Zm-8.75,30.9c2.72-.8,5.07-1.53,7.13-2.58,.77-.39,.44-.58,.17-.58h-13.4c1.48,1.08,3.21,2.14,6.09,3.16Z" />
	<path class="cls-1" d="M189.74,44.48c.21,.21,.38,.38,.48,.59,1.87-3.63,3.31-7.91,4.37-12.77,.96-4.7,1.44-11.01,1.43-16.83h-1.94c-.85,0-2.51-.54-2.51-2.72s1.96-2.51,2.81-2.51h1.63V5.09c0-.75,.46-2.77,2.64-2.77s2.6,2.01,2.6,2.76c0,2.46-.05,3.11-.05,5.14h4.22c3.42,0,5.18,1.97,5.24,5.87,0,14.21-.25,24.1-.68,27.57-.27,2.56-.85,4.33-1.81,5.34-1.12,1.18-2.89,1.87-5.24,1.98-1.98-.05-6.03-.75-6.04-4,0-1.86,1.88-2.62,3.3-1.99,1.07,.53,1.52,.69,2.74,.54,1.22-.14,2.03-1.28,2.13-3.31,.21-3.47,.37-12.56,.36-25.11,0-.69-.16-1.17-.43-1.39-.21-.16-.53-.27-1.01-.27h-2.83v.48c.06,4.17-.26,9.62-.95,14.32-1.17,7.58-2.92,13.49-5.91,19.04-.62,1.13-2.83,2.31-4.76,.78-.54-.42-.75-1.07-.75-1.82v-.05c-.11,0-.21,.05-.21,.05l-22.41,2.1c-.86-.05-2.24-.74-2.3-2.29-.06-1.55,1.39-2.3,2.08-2.3l8.81-.75v-3.42h-7.75c-.75,0-2.08-.45-2.08-2.08s1.33-2.08,2.08-2.08h7.75v-2.3h-6.74c-2.35,0-3.52-1.17-3.53-3.57v-10.84c0-2.35,1.17-3.53,3.52-3.53h6.73v-2.3h-9.25c-.75,0-2.3-.58-2.3-2.29s1.55-2.3,2.29-2.3h9.25v-2.19c-2.78,.21-5.51,.37-8.61,.33-1.69-.02-2.3-1.07-2.3-2.72,.11-1.07,.91-1.87,2.08-1.87,7.85,.01,14.35-.54,21.03-1.24,.53,0,.91-.08,1.18-.06,1.68,.17,2.08,1.71,2.08,2.3,0,.96-.56,1.89-1.65,2.08-1.77,.3-4.14,.65-8.36,.86v2.51h8.15c.8,0,2.3,.48,2.3,2.29s-1.5,2.3-2.3,2.3h-8.15v2.3h6.87c2.35,0,3.58,1.17,3.58,3.52v10.84c0,2.4-1.22,3.58-3.57,3.58h-6.87v2.3h7.51c.75,0,2.09,.48,2.09,2.08s-1.34,2.08-2.08,2.08h-7.51v3l7.72-.7c.86,0,1.44,.21,1.82,.59Zm-15-23.12h-3.8c-.75,0-1.07,.38-1.07,1.02v7.53c0,.75,.33,1.07,1.07,1.07h3.8v-9.62Zm10.44,1.01c0-.64-.38-1.02-1.02-1.01h-3.98v9.62h3.99c.64,0,1.02-.33,1.02-1.07v-7.53Z" />
	<path class="cls-1" d="M182.31,23.88h-9.63c-.75,0-2.29,.59-2.29,2.3s1.55,2.3,2.3,2.3h9.62c.75,0,2.3-.59,2.3-2.3s-1.55-2.3-2.29-2.3Z" />
	<path class="cls-1" d="M144.58,13.98h-12.71c-.49,0-1.51,.39-1.51,1.52s1.02,1.51,1.51,1.51h12.7c.49,0,1.51-.39,1.51-1.51s-1.02-1.51-1.51-1.52Z" />
	<path class="cls-1" d="M144.56,18.23h-12.71c-.49,0-1.51,.39-1.51,1.52s1.02,1.51,1.51,1.51h12.7c.49,0,1.51-.39,1.51-1.51s-1.02-1.51-1.51-1.52Z" />
</svg>
