<?xml version="1.0" encoding="UTF-8"?>
<svg id="_層_1" xmlns="http://www.w3.org/2000/svg" viewBox="0 0 150.13 29.56">
	<defs>
	 	<style>
	        .cls-1{
	            stroke-dasharray: 950;
	            stroke-dashoffset: 0;
	            stroke-width: 2;
	            stroke: #593e41;
	            fill: transparent;
	            animation: dash 10s ease forwards;
	        }

	        @keyframes dash {
	            from {
	                stroke-dashoffset: 950;
	            }

	            to {
	                stroke-dashoffset: 0;
	            }
	        }			 
	 	</style>
	</defs>
	<g>
		<path class="cls-1" d="M20.19,2.56c1.3-.43,2.31-.22,3.03,.63,3.67,7.24,7.32,14.48,10.94,21.73,.58,.85,.41,1.7-.51,2.56-1.47,.91-2.55,.46-3.23-1.37l-1.38-2.94c-.23-.51-.61-.77-1.12-.76H14.67c-.51,0-.91,.27-1.18,.78-.59,1.24-1.18,2.47-1.75,3.71-.32,.6-.68,.93-1.09,1.02-.72,.16-1.36-.04-1.92-.57-.72-.81-.8-1.66-.23-2.55,3.53-7.04,7.09-14.07,10.66-21.1,.23-.51,.58-.89,1.02-1.12Zm1.5,5.14c-.25-.55-.5-.59-.73-.09l-5.2,11.03c-.21,.51-.06,.77,.45,.76h10.2c.51,0,.65-.27,.41-.8l-5.12-10.89Z" />
		<path class="cls-1" d="M40.01,1.78c.47-.24,1.08-.24,1.82-.03,.64,.28,.96,.69,.96,1.25V26.42c-.11,.96-.65,1.46-1.61,1.5-1.02,.13-1.67-.33-1.95-1.37l-.02-23.58c.04-.47,.31-.86,.8-1.18Z" />
		<path class="cls-1" d="M63.3,4.04c3.45-1.85,7.18-2.23,11.18-1.13,.94,.3,1.79,.67,2.56,1.12,.98,.62,1.83,1.32,2.53,2.11,.87,.92,1.28,1.79,1.22,2.61-.09,.69-.28,1.07-.9,1.26-.77,.3-1.65-.26-2.59-1.16-2-1.94-3.83-2.74-5.24-3.06-2.09-.47-4.07-.25-5.94,.64-1.9,1-3.29,2.57-4.19,4.7-.38,.94-.63,2.02-.73,3.23v1.73c.11,1.94,.63,3.65,1.57,5.11,.96,1.43,2.12,2.37,3.49,2.84,1.92,.75,3.92,.84,6.01,.29,1.6-.34,3.25-1.17,5.17-3.16,.89-.92,1.85-1.43,2.66-.87,.79,.59,.98,1.38,.58,2.36-.34,.77-1.19,1.66-2.55,2.66-1.7,1.3-3.41,2.06-5.11,2.3-.7,.15-1.48,.24-2.33,.29h-1.76c-1.71-.04-3.42-.41-5.15-1.11-1.86-.78-3.41-2.16-4.67-4.12-1.04-1.87-1.63-4.03-1.76-6.45v-1.88c.08-1.66,.51-3.37,1.27-5.12,.96-2.09,2.52-3.81,4.69-5.18Z" />
	</g>
	<g>
		<path class="cls-1" d="M102,18.44c.1-1.3,.57-5.95-.3-7.7-.87-1.76-3.2-3.78-5.98-4.28-5.46-.97-9.33,.23-12.24,3.75-.8,1.6-.74,2.97,.55,3.36,1.9,.58,2.57-1.49,3.55-2.4,2.69-2.51,8.38-1.98,9.68,.07,.63,1,.59,3.51-5.13,2.66-.92-.14-6.3-.14-8.36,3.43-.75,1.3-1.01,2.65-.82,3.9,.26,2.73,1.72,4.76,4.44,5.89,2.65,1.1,5.39,.76,6.06,.63,1.86-.35,3.59-1.16,5.17-2.47,.11,1.19,.62,1.78,1.33,2.13,1.8,.69,2.73-1.17,2.49-2.69-.31-2.01-.56-4.98-.46-6.29Zm-3.77-.56c-.02,.74-.1,1.39-.24,1.91-.5,1.78-1.77,3.06-3.88,3.91-.93,.39-2,.55-3.11,.49-.91-.09-1.69-.27-2.31-.54-.95-.44-1.53-.99-1.79-1.77-.28-.67-.35-1.38-.24-2.08,.2-.79,.69-1.34,1.43-1.69,.77-.27,1.63-.43,2.51-.48,.67-.01,1.35-.02,2.03-.02,.61,0,1.23,0,1.86,.01,1.4-.08,2.65-.35,3.74-.8v1.04Z" />
		<path class="cls-1" d="M114.99,6.62c-2.44-.26-4.27,.35-5.98,1.84-.02-.42-.06-.63-.11-.79l-.11-.24c-.28-.45-.7-.74-1.21-.85l-.19-.03c-1-.03-1.78,.5-1.99,1.43l-.03,.13V25.94l.05,.28c.16,.62,.46,1.05,.91,1.3,.19,.11,.46,.21,.79,.21,.15,0,.3-.02,.47-.07,.35-.09,.84-.33,1.21-1.01l.09-.21c.07-.24,.15-.66,.15-1.75l-.02-9.97c0-4.5,3.68-4.84,5.74-4.31s2.35,2.38,2.65,3.04,1.38,.88,2.35,.54c.69-.32,.94-.63,1.08-1.58s-1.62-5.34-5.85-5.79Z" />
		<path class="cls-1" d="M141.15,20.67c-.19-.34-.59-.78-1.42-.93-.41-.07-1.42-.12-2.14,1.12-.4,.71-1.86,2.56-3.9,3.02-2.09,.47-6.81,.03-7.91-5.7l14.07-.02c.69-.11,1.23-.36,1.71-.85,.17-.22,.29-.48,.38-.83l.03-.19c.14-1.69-.25-3.36-1.13-4.94-.63-1.17-1.59-2.22-2.89-3.13-1.01-.63-2.08-1.09-3.21-1.36-2.13-.47-4.15-.41-6.01,.16-2.56,.68-4.51,2.32-5.78,4.84-.51,.96-.86,2.04-1.04,3.18-.55,3.04,.06,5.92,1.86,8.62,2.81,3.79,7.27,4.04,8.42,4.04,5.88,0,8.63-4.69,8.96-5.31,.33-.81,.17-1.39-.01-1.73Zm-14.99-6.18c.4-1.36,1.21-2.43,2.46-3.27,.89-.59,1.81-.91,2.81-1,2.28-.13,4.05,.63,5.35,2.27,.55,.72,.86,1.42,.98,1.99-.11,0-.23,0-.37,0h-11.24Z" />
	</g>
</svg>
